<svg version="1.1" id="closer" xmlns="http://www.w3.org/2000/svg" xmlns:xlink="http://www.w3.org/1999/xlink" x="0px" y="0px"
	 viewBox="0 0 25 25" style="enable-background:new 0 0 25 25;" xml:space="preserve">
<path d="M24.3,6.6l-21,14.9c-0.6,0.4-1.4,0.3-1.9-0.3l-1-1.5c-0.4-0.6-0.3-1.4,0.3-1.9l21-14.9c0.6-0.4,1.4-0.3,1.9,0.3l1,1.5
	C25.1,5.3,24.9,6.1,24.3,6.6z"/>
<path d="M0.7,6.6l21,14.9c0.6,0.4,1.4,0.3,1.9-0.3l1-1.5c0.4-0.6,0.3-1.4-0.3-1.9L3.3,2.9C2.7,2.5,1.8,2.6,1.4,3.2l-1,1.5
	C-0.1,5.3,0.1,6.1,0.7,6.6z"/>
</svg>
