<?xml version="1.0" encoding="utf-8"?>
<svg version="1.1" id="Слой_1" xmlns="http://www.w3.org/2000/svg" xmlns:xlink="http://www.w3.org/1999/xlink" x="0px" y="0px"
	 viewBox="0 0 25 25" style="enable-background:new 0 0 25 25;" xml:space="preserve">
<g>
	<path d="M23.7,6.9H1.3C0.6,6.9,0,6.3,0,5.6V4.1c0-0.7,0.6-1.3,1.3-1.3h22.3c0.7,0,1.3,0.6,1.3,1.3v1.5C25,6.3,24.4,6.9,23.7,6.9z"
		/>
	<path d="M23.7,14.6H1.3C0.6,14.6,0,14,0,13.2v-1.5c0-0.7,0.6-1.3,1.3-1.3h22.3c0.7,0,1.3,0.6,1.3,1.3v1.5
		C25,14,24.4,14.6,23.7,14.6z"/>
	<path d="M23.7,22.2H1.3c-0.7,0-1.3-0.6-1.3-1.3v-1.5c0-0.7,0.6-1.3,1.3-1.3h22.3c0.7,0,1.3,0.6,1.3,1.3v1.5
		C25,21.6,24.4,22.2,23.7,22.2z"/>
</g>
</svg>
