<?xml version="1.0" encoding="utf-8"?>
<!-- Generator: Adobe Illustrator 21.1.0, SVG Export Plug-In . SVG Version: 6.00 Build 0)  -->
<svg version="1.1" id="uase" xmlns="http://www.w3.org/2000/svg" xmlns:xlink="http://www.w3.org/1999/xlink" x="0px" y="0px"
	 viewBox="0 0 95.2 61.2" style="enable-background:new 0 0 95.2 61.2;" xml:space="preserve">
<style type="text/css">
	.st0{fill:#FCE510;}
	.st1{fill:#008BD3;}
	.st2{fill:#FFFFFF;}
	.st3{fill:#A3C4CC;}
</style>
<g id="group">
	<path class="st0" d="M90.6,29.1c-0.3-2.1,3.3-5,0.8-6.9s-14.4-5.6-17-4.6s-5.5-1.4-6.1-3.3s-1.1-3.8-3.5-3.9s-3-1.8-2.4-3.3
		s0.5-1.4-1.2-3.8s-5.7-2-7.7-1.4s-1.8,1.7-5.4,1.5S44.3,5,43.6,6.5s-0.6,1.8-1.9,1.9C35.2,7.9,28.8,7,22.5,5.6
		c-5.8-1.5-10.3-0.8-11,0.2C11,6.8,9.9,7.3,8.8,7C7.6,6.7,8.1,8.2,8.2,9.5s1.9,4.1,2.3,5.2S9.5,16.2,9,16.3s-5.1,5.3-5.6,6.1
		s0.2,2.4,0.3,3.2S3.4,26.5,3,26.3s-2.4,4-2.4,4s0,0,0,0.1h90.2C90.8,29.9,90.7,29.5,90.6,29.1z"/>
	<path class="st1" d="M0.6,30.4c-0.5,2.8,7.5,5,13.3,5.3s11.3-4,14.6-4.3s8,4.4,8,5.3c0,0.9,5,5.5,4.9,5.9s-4,3.5-5.1,2.7
		s-1,2.4-1.6,4.3s-3.3,3.9-3.3,3.9c0.3,2.9,4.5,0.6,5.7,0.1s2-0.2,1.9-0.9s4-4,4.8-5.8s3-2,4.7-1.9s1.4,2.3,3.2,3.1s5.6,0.4,7.4,0.8
		s-3.1,2.9-4.3,3.8s-1.7,1.2-1.2,1.7s2.6,0.5,4.5,1.4s-1.3,3.9,0.9,5.1s3.7-0.8,4.6-2.1s4.3-1.8,5.5-2.8s3.6,0.5,4.1,0.4
		s0.2-1.8,0.6-2.6s-1.5-0.5-4,0.1s-1.7,1-3.2-1.6s-0.8-3.6,0.7-6.1s14.1-3.8,15-6.8s3.8-3.2,6.7-4c2.4-0.6,2.2-3.1,1.9-5.1L0.6,30.4
		z"/>
	<path class="st2" d="M41.2,14.1H4c0,0-4.9,0.7-3.1,3.4s18.8,15.7,18.8,15.7s1.2,1.1,5.6,0.7s23.1,12.7,23.1,12.7l3.7,2.6
		c0,0,4.1,0.8,3.8-3.3c0,0,2.3,0.5,3.7-0.8c0.8-0.9,1.1-2.1,0.7-3.3c0,0,2.6,1,4.4-0.5s0-3.8,0-3.8c1.2,1,2.8,1.2,4.2,0.5
		c2.2-1.2,1-3.7,1-3.7L47.7,17C46.1,15.1,43.7,14,41.2,14.1z"/>
	<path class="st3" d="M52.9,49.8c-0.3,0-0.6,0-0.9-0.1c-0.1,0-0.1,0-0.2-0.1L48.1,47c-5.2-3.6-19.3-13-22.8-12.6
		c-4.5,0.4-5.9-0.7-6-0.8c-0.7-0.5-17-13.1-18.8-15.8c-0.5-0.6-0.6-1.4-0.3-2.1c0.7-1.6,3.5-2,3.8-2h37.3c2.6,0,5.1,1.1,6.7,3.1
		l22.2,17.3c0.1,0,0.1,0.1,0.1,0.2c0.9,1.5,0.4,3.5-1.2,4.4c-1,0.6-2.2,0.7-3.3,0.2c0.4,1.1,0,2.3-0.8,3c-1.2,0.9-2.6,1.2-4,0.9
		c0.2,1.1-0.2,2.2-1,3c-1,0.8-2.3,1.2-3.5,1c0,0.9-0.3,1.8-1,2.5C54.7,49.5,53.8,49.8,52.9,49.8z M52.3,48.8c0.9,0.2,1.7,0,2.5-0.5
		c0.6-0.6,0.8-1.4,0.7-2.3c0-0.2,0.1-0.3,0.2-0.4c0.1-0.1,0.3-0.1,0.4-0.1c0,0,2.1,0.5,3.2-0.7c0.7-0.8,0.9-1.8,0.6-2.8
		c-0.1-0.3,0-0.5,0.3-0.6c0.1,0,0.2,0,0.3,0c0,0,2.4,0.8,3.9-0.5s0-3.1-0.1-3.1c-0.2-0.2-0.1-0.5,0.1-0.7c0.2-0.1,0.4-0.1,0.6,0
		c1,0.9,2.5,1.1,3.7,0.5c1-0.6,1.4-1.9,0.8-2.9L47.3,17.4l-0.1-0.1c-1.5-1.8-3.7-2.8-6-2.7H4c-0.6,0.1-2.6,0.5-3,1.4
		c-0.1,0.1-0.2,0.5,0.2,1.2C2.6,19.3,14,28.3,19.9,32.8c0,0,1.2,1,5.3,0.6c4.5-0.4,22.7,12.3,23.5,12.8L52.3,48.8z"/>
	<path class="st3" d="M31.4,20.1H3c-0.3,0-0.5-0.2-0.5-0.5s0.2-0.5,0.5-0.5h28.4c0.3,0,0.5,0.2,0.5,0.5S31.7,20.1,31.4,20.1z"/>
	<path class="st3" d="M27.3,25.4H8.5c-0.3,0-0.5-0.2-0.5-0.5s0.2-0.5,0.5-0.5h18.8c0.3,0,0.5,0.2,0.5,0.5S27.6,25.4,27.3,25.4z"/>
	<path class="st3" d="M22.7,30.3h-7.4c-0.3,0-0.5-0.2-0.5-0.5s0.2-0.5,0.5-0.5h7.4c0.3,0,0.5,0.2,0.5,0.5S22.9,30.3,22.7,30.3z"/>
	<path class="st2" d="M51.7,20.9c0,0-5.2,5.3-6.8,5.5s-3.8-1-3.6-2.7s7.1-7.3,7.1-7.3s1.6-1.9,6.3-2.2c4.7-0.3,37,0,37,0
		s3.1,0.4,3,2.3s-15.4,14.8-17.1,16s-4.1,3.1-7.7,1.8S51.7,20.9,51.7,20.9z"/>
	<path class="st3" d="M72.3,35.3c-0.9,0-1.8-0.2-2.6-0.5c-3.3-1.3-15.7-11.3-18-13.2c-1.4,1.4-5.3,5.2-6.8,5.3
		c-1.3,0.1-2.5-0.3-3.4-1.2c-0.5-0.5-0.8-1.3-0.7-2.1c0.3-1.9,6.1-6.6,7.3-7.6c0,0,1.8-2,6.6-2.3c4.6-0.3,35.7,0,37,0
		c0.2,0,3.7,0.5,3.5,2.9S79.2,32,77.9,32.9l-0.4,0.3C76,34.4,74.2,35.1,72.3,35.3z M51.7,20.2l0.4,0.3c0.1,0.1,14.6,12,18.1,13.3
		c3.1,1.2,5.1-0.3,6.8-1.5l0.4-0.3c2-1.4,16.6-13.9,16.9-15.6c0.1-1.4-2.5-1.8-2.6-1.8l0,0c-0.4,0-32.3-0.3-36.9,0
		c-4.4,0.3-5.9,2-5.9,2c-2.9,2.3-6.8,5.9-7,7c-0.1,0.5,0.1,0.9,0.4,1.2c0.7,0.7,1.6,1,2.6,0.9c1-0.1,4.4-3.2,6.5-5.3L51.7,20.2z"/>
	<path class="st3" d="M92.2,20.1H61.4c-0.3,0-0.5-0.2-0.5-0.5s0.2-0.5,0.5-0.5h30.8c0.3,0,0.5,0.2,0.5,0.5S92.4,20.1,92.2,20.1z"/>
	<path class="st3" d="M86.6,25.4H68.9c-0.3,0-0.5-0.2-0.5-0.5s0.2-0.5,0.5-0.5h17.7c0.3,0,0.5,0.2,0.5,0.5S86.9,25.4,86.6,25.4
		L86.6,25.4z"/>
	<path class="st3" d="M80.9,30.3h-9.3c-0.3,0-0.5-0.2-0.5-0.5s0.2-0.5,0.5-0.5h9.3c0.3,0,0.5,0.2,0.5,0.5S81.2,30.3,80.9,30.3z"/>
	<path class="st2" d="M36.4,27.9l1.3,1.4c0.8,0.9,0.7,2.2-0.1,3L30.3,39c-0.9,0.8-2.2,0.7-3-0.1l-1.3-1.4c-0.8-0.9-0.7-2.2,0.1-3
		l7.2-6.7C34.3,27,35.6,27,36.4,27.9z"/>
	<path class="st3" d="M28.9,40h-0.1c-0.7,0-1.3-0.3-1.8-0.8l-1.3-1.4c-1-1.1-0.9-2.7,0.1-3.7l7.2-6.8c0.5-0.5,1.2-0.7,1.9-0.7
		c0.7,0,1.3,0.3,1.8,0.8l1.3,1.4c1,1.1,0.9,2.7-0.1,3.7l-7.2,6.7C30.2,39.8,29.5,40,28.9,40z M34.9,27.7c-0.4,0-0.8,0.2-1.1,0.4
		l-7.2,6.8c-0.6,0.6-0.7,1.6-0.1,2.3l1.3,1.4l0,0c0.3,0.3,0.7,0.5,1.1,0.5c0.4,0,0.8-0.1,1.1-0.4l7.2-6.8c0.6-0.6,0.7-1.6,0.1-2.3
		l-1.3-1.4C35.8,27.9,35.4,27.7,34.9,27.7L34.9,27.7z"/>
	<path class="st2" d="M41.3,31.7l0.6,0.6c0.8,0.9,0.7,2.2-0.1,3l-7.2,6.7c-0.9,0.8-2.2,0.7-3-0.1L31,41.4c-0.8-0.9-0.7-2.2,0.1-3
		l7.2-6.7C39.2,30.8,40.5,30.9,41.3,31.7z"/>
	<path class="st3" d="M33.1,43.2c-0.7,0-1.4-0.3-1.9-0.8l-0.6-0.6c-1-1.1-0.9-2.7,0.1-3.7l7.2-6.8c1.1-1,2.7-0.9,3.7,0.1l0.6,0.6
		c1,1.1,0.9,2.7-0.1,3.7l-7.2,6.7C34.4,42.9,33.8,43.2,33.1,43.2z M39.8,31.6c-0.4,0-0.8,0.2-1.1,0.4l-7.2,6.7
		c-0.6,0.6-0.7,1.6-0.1,2.3l0.6,0.6l0,0c0.6,0.6,1.6,0.7,2.3,0.1l7.3-6.8c0.6-0.6,0.7-1.6,0.1-2.3l-0.6-0.6
		C40.6,31.8,40.2,31.6,39.8,31.6z"/>
	<path class="st2" d="M45.7,34.7l0.9,1c0.8,0.9,0.7,2.2-0.1,3l-7.5,7c-0.9,0.8-2.2,0.7-3-0.1l-0.9-1c-0.8-0.9-0.7-2.2,0.1-3l7.5-7
		C43.5,33.8,44.9,33.8,45.7,34.7z"/>
	<path class="st3" d="M37.5,46.7L37.5,46.7c-0.8,0-1.4-0.3-1.9-0.8l-0.9-1c-1-1.1-0.9-2.7,0.1-3.7l7.5-7c1.1-1,2.7-0.9,3.7,0.1
		l0.9,1c1,1.1,0.9,2.7-0.1,3.7l-7.5,7C38.8,46.5,38.1,46.7,37.5,46.7z M44.1,34.5c-0.4,0-0.8,0.2-1.1,0.4l-7.5,7
		c-0.6,0.6-0.7,1.6-0.1,2.3l0.9,1l0,0c0.3,0.3,0.7,0.5,1.1,0.5c0.4,0,0.8-0.1,1.1-0.4l7.5-7c0.6-0.6,0.7-1.6,0.1-2.3l-0.9-1
		C45,34.7,44.5,34.5,44.1,34.5L44.1,34.5z"/>
	<path class="st2" d="M49.5,38.8l0.9,1c0.8,0.9,0.7,2.2-0.1,3l-7.2,6.7c-0.9,0.8-2.2,0.7-3-0.1l-0.9-1c-0.8-0.9-0.7-2.2,0.1-3
		l7.2-6.7C47.4,37.9,48.7,38,49.5,38.8z"/>
	<path class="st3" d="M41.6,50.6c-0.7,0-1.4-0.3-1.9-0.8l0,0l-0.9-1c-1-1.1-0.9-2.7,0.1-3.7l7.3-6.8c0.5-0.5,1.2-0.7,1.9-0.7
		c0.7,0,1.3,0.3,1.8,0.8l0.9,1c1,1.1,0.9,2.7-0.1,3.7l-7.3,6.8C42.9,50.3,42.3,50.6,41.6,50.6z M40.4,49.1c0.6,0.6,1.6,0.7,2.3,0.1
		l7.3-6.8c0.6-0.6,0.7-1.6,0.1-2.3l-0.9-1c-0.3-0.3-0.7-0.5-1.1-0.5c-0.4,0-0.8,0.1-1.1,0.4l-7.3,6.8c-0.6,0.6-0.7,1.6-0.1,2.3
		L40.4,49.1z"/>
</g>
</svg>
