<svg xmlns="http://www.w3.org/2000/svg" viewBox="0 0 197.07 69.87"><defs><style>.cls-1{fill:none;}.cls-2{fill:#f7dc49;}.cls-3{fill:#587bb0;}</style></defs><title>УДС</title><g id="Слой_2" data-name="Слой 2"><g id="Слой_1-2" data-name="Слой 1"><path class="cls-1" d="M67.71,47.23c-.62,5.18-2.41,8.83-5,11.46H81.1V33.36H69.36Z"/><path class="cls-2" d="M125.3,11.66h33l-13.4,8.85a33.32,33.32,0,0,1,7.08,9.3L197.07,0H125.3Z"/><path class="cls-3" d="M23.33,44.54,13.39,23H0L16.63,55.93c-1.38,2.35-2.69,3.45-5.66,3.45A10.27,10.27,0,0,1,5,57.1L.35,66.35C3.18,68.63,7.59,69.87,12,69.87c8.49,0,13.11-4.21,16-9.87l18.7-37H33.33Z"/><path class="cls-3" d="M93,29.51V23H58.67L55.91,46.34c-1.31,10.49-3.93,12.35-8.35,13V69H97.11V66.51a33.19,33.19,0,0,1-4.14-37ZM81.1,58.69H62.67c2.62-2.62,4.42-6.28,5-11.46l1.66-13.87H81.1Z"/><path class="cls-3" d="M93,58.69V29.51a33.19,33.19,0,0,0,4.14,37V58.69Z"/><path class="cls-3" d="M99.87,46.06c0,14.15,10.77,23.81,24.92,23.81,11.11,0,17.12-6.42,20.08-12.35l-10.21-4.83a11.05,11.05,0,0,1-9.87,6.69c-7.52,0-12.84-5.8-12.84-13.32s5.31-13.32,12.84-13.32a11.05,11.05,0,0,1,9.87,6.69l2.11-1L131,29.67l6.11-4a22.07,22.07,0,0,0-12.3-3.39C110.64,22.25,99.87,31.84,99.87,46.06Z"/><path class="cls-3" d="M144.87,34.6l-.05-.1-.66.44Z"/><path class="cls-3" d="M136.76,38.44l7.39-3.5.66-.44a22.48,22.48,0,0,0-7.73-8.87l-6.11,4Z"/></g></g></svg>